<svg width="40" height="40" fill="none" xmlns="http://www.w3.org/2000/svg"><circle cx="20" cy="20" r="20" fill="#fff" fill-opacity=".3"/><g clip-path="url(#a)"><path d="M27.67 16.67a1.97 1.97 0 0 0-1.41-1.34C25.01 15 20 15 20 15a51.1 51.1 0 0 0-6.26.32 1.96 1.96 0 0 0-1.41 1.35 19.4 19.4 0 0 0-.33 3.67c0 1.22.1 2.45.33 3.66.09.32.27.61.51.85.25.23.56.4.9.5 1.27.32 6.26.32 6.26.32 2.09.02 4.18-.08 6.26-.31.34-.09.65-.26.9-.5.24-.23.42-.52.5-.84.24-1.21.35-2.44.34-3.67.02-1.23-.1-2.46-.33-3.68Zm-9.27 5.95v-4.57l4.18 2.29-4.18 2.28Z" fill="#444"/></g><defs><clipPath id="a"><path fill="#fff" transform="translate(12 15)" d="M0 0h16v11H0z"/></clipPath></defs></svg>